<?xml version="1.0" encoding="UTF-8" standalone="no"?><!DOCTYPE svg PUBLIC "-//W3C//DTD SVG 1.1//EN" "http://www.w3.org/Graphics/SVG/1.1/DTD/svg11.dtd"><svg width="100%" height="100%" viewBox="0 0 3750 821" version="1.1" xmlns="http://www.w3.org/2000/svg" xmlns:xlink="http://www.w3.org/1999/xlink" xml:space="preserve" xmlns:serif="http://www.serif.com/" style="fill-rule:evenodd;clip-rule:evenodd;stroke-linecap:round;stroke-linejoin:round;stroke-miterlimit:1.5;"><rect id="Artboard1" x="0" y="0" width="3750" height="820.124" style="fill:none;"/><clipPath id="_clip1"><rect x="0" y="0" width="3750" height="820.124"/></clipPath><g clip-path="url(#_clip1)"><g id="Spray-Gun" serif:id="Spray Gun"><path id="Gear" d="M428.032,13.449c-25.105,-2.494 -50.388,-2.494 -75.493,0l-10.724,73.304c-23.243,3.637 -46.024,9.878 -67.932,18.61l-45.136,-58.001c-22.962,10.674 -44.857,23.599 -65.379,38.592l26.562,68.966c-18.351,15.031 -35.028,32.081 -49.729,50.843l-67.455,-27.157c-14.665,20.982 -27.306,43.367 -37.746,66.843l56.73,46.148c-8.542,22.398 -14.646,45.689 -18.202,69.452l-71.698,10.965c-2.44,25.668 -2.44,51.516 0,77.184l71.698,10.964c3.556,23.764 9.66,47.055 18.202,69.453l-56.73,46.148c10.44,23.475 23.081,45.861 37.746,66.842l67.455,-27.156c14.701,18.762 31.378,35.812 49.729,50.843l-26.562,68.966c20.522,14.993 42.417,27.918 65.379,38.591l45.136,-58c21.908,8.732 44.689,14.973 67.932,18.609l10.724,73.304c25.105,2.494 50.388,2.494 75.493,0l10.724,-73.304c23.243,-3.636 46.024,-9.877 67.931,-18.609l45.137,58c22.962,-10.673 44.857,-23.598 65.379,-38.591l-26.562,-68.966c18.351,-15.031 35.028,-32.081 49.729,-50.843l67.455,27.156c14.665,-20.981 27.306,-43.367 37.746,-66.842l-56.73,-46.148c8.541,-22.398 14.646,-45.689 18.202,-69.453l71.698,-10.964c2.44,-25.668 2.44,-51.516 0,-77.184l-71.698,-10.965c-3.556,-23.763 -9.661,-47.054 -18.202,-69.452l56.73,-46.148c-10.44,-23.476 -23.081,-45.861 -37.746,-66.843l-67.455,27.157c-14.701,-18.762 -31.378,-35.812 -49.729,-50.843l26.562,-68.966c-20.522,-14.993 -42.417,-27.918 -65.379,-38.592l-45.137,58.001c-21.907,-8.732 -44.688,-14.973 -67.931,-18.61l-10.724,-73.304Zm-37.747,140.291c138.663,0 251.24,115.097 251.24,256.866c0,141.768 -112.577,256.866 -251.24,256.866c-138.662,0 -251.239,-115.098 -251.239,-256.866c0,-141.769 112.577,-256.866 251.239,-256.866Z" style="fill:#777;stroke:#000;stroke-width:4.25px;"/><path id="Spray-Gun1" serif:id="Spray Gun" d="M300.76,192.422c18.405,-41.846 55.215,-125.538 65.991,-150.905c0.242,-0.571 -0.835,-0.929 -1.335,-1.296c-0.756,-0.554 -2.418,-1.037 -3.201,-2.029c-0.826,-1.046 -1.466,-2.991 -1.753,-4.248c-0.244,-1.07 -0.337,-2.26 0.033,-3.294c0.382,-1.071 1.314,-2.261 2.262,-3.134c1.013,-0.932 3.277,-1.578 3.813,-2.458c0.5,-0.821 -0.517,-1.863 -0.599,-2.821c-0.097,-1.14 -0.386,-2.742 0.016,-4.02c0.454,-1.444 1.443,-3.873 2.71,-4.641c1.266,-0.768 3.302,-0.34 4.888,0.032c1.868,0.437 4.455,1.924 6.317,2.594c1.587,0.571 3.301,1.776 4.854,1.427c1.554,-0.348 3.344,-2.549 4.467,-3.519c0.816,-0.705 1.216,-2.096 2.275,-2.3c1.919,-0.37 6.179,-0.261 9.241,0.082c3.687,0.413 8.771,0.921 12.882,2.398c9.515,3.416 29.686,11.57 44.208,18.102c17.553,7.896 47.278,22.134 61.106,29.273c7.619,3.934 16.656,10.009 21.86,13.559c3.347,2.284 7.054,5.555 9.368,7.746c1.703,1.612 3.791,3.516 4.513,5.398c0.703,1.835 -0.02,4.455 -0.186,5.892c-0.109,0.942 -1.363,1.956 -0.812,2.728c0.587,0.822 2.908,1.432 4.334,2.201c1.545,0.833 3.467,1.666 4.937,2.798c1.47,1.132 3.074,2.861 3.884,3.994c0.576,0.805 1.276,1.862 0.976,2.805c-0.301,0.943 -1.523,2.423 -2.78,2.854c-1.321,0.453 -4.475,-0.978 -5.15,-0.136c-0.675,0.842 1,3.589 1.099,5.187c0.091,1.474 0.295,3.224 -0.504,4.401c-0.798,1.177 -2.667,2.206 -4.286,2.661c-2.019,0.568 -6.515,0.266 -7.828,0.745c-0.668,0.244 0.261,1.492 -0.047,2.133c-0.49,1.022 -2.189,2.514 -2.895,4.002c-11.381,23.977 -53.52,115.882 -65.394,139.859c-1.047,2.117 -3.494,3.775 -5.845,4.004c-11.229,1.093 -50.163,1.554 -61.531,2.559c-2.499,0.221 -5.33,1.356 -6.677,3.472c-3.278,5.154 -9.765,21.698 -12.994,27.448c-1.552,2.765 -5.453,5.18 -6.38,7.056c-0.633,1.279 0.501,3.072 0.814,4.201c0.248,0.895 1.384,1.703 1.063,2.574c-1.375,3.738 -7.597,16.355 -9.312,19.855c-0.221,0.45 -0.487,1.034 -0.976,1.144c-0.849,0.19 -3.209,-1.03 -4.116,0c-1.623,1.842 -4.621,8.999 -5.623,11.053c-0.195,0.399 -0.75,1.531 -0.391,1.272c1.28,-0.923 5.27,-4.671 8.066,-6.807c3.093,-2.363 6.482,-5.895 10.493,-7.37c4.809,-1.769 12.539,-2.555 18.356,-3.239c5.485,-0.645 12.741,-1.376 16.545,-0.865c2.448,0.329 5.069,1.778 6.281,3.93c3.588,6.369 12.777,27.714 15.246,34.288c0.606,1.615 0.997,4.19 -0.432,5.156c-1.697,1.146 -7.363,1.756 -9.75,1.723c-1.653,-0.023 -3.257,-0.92 -4.574,-1.92c-1.401,-1.066 -3.05,-2.673 -3.835,-4.473c-0.828,-1.897 -0.33,-4.791 -1.131,-6.909c-0.801,-2.118 -1.64,-4.751 -3.674,-5.801c-2.414,-1.247 -7.345,-2.819 -10.808,-1.68c-3.613,1.188 -8.129,5.498 -10.867,8.807c-2.628,3.176 -5.112,7.038 -5.56,11.045c-0.448,4.007 1.761,10.203 2.871,12.996c0.658,1.655 2.022,3.576 3.793,3.763c3.618,0.383 11.981,-0.643 17.915,-1.468c8.837,-1.23 27.909,-5.016 35.105,-5.908c2.677,-0.332 5.47,-0.148 8.074,0.557c3.176,0.86 8.618,3.893 10.981,4.603c1.026,0.309 2.571,0.129 3.197,-0.341c0.625,-0.47 -0.101,-1.944 0.556,-2.48c0.912,-0.743 3.185,-1.627 4.916,-1.979c2.732,-0.555 9.069,-1.27 11.477,-1.352c1.031,-0.035 2.387,1.095 2.972,0.858c0.585,-0.236 -0.021,-1.733 0.539,-2.276c0.727,-0.704 2.409,-1.733 3.823,-1.951c3.996,-0.618 16.127,-1.911 20.148,-1.757c1.598,0.062 2.927,1.477 3.977,2.682c1.304,1.498 2.901,4.032 3.85,6.304c1.06,2.54 1.957,5.891 2.511,8.935c0.585,3.211 0.891,7.398 0.996,10.333c0.087,2.427 0.005,5.028 -0.366,7.278c-0.352,2.135 -1.214,4.677 -1.861,6.221c-0.469,1.121 -0.824,2.805 -2.018,3.038c-4.417,0.863 -20.215,2.206 -24.487,2.137c-0.931,-0.015 -0.801,-2.423 -1.146,-2.549c-0.345,-0.126 -0.665,1.171 -0.922,1.791c-0.335,0.809 -0.062,2.71 -1.086,3.061c-1.925,0.662 -8.731,0.522 -10.468,0.908c-0.459,0.102 -0.338,1.143 0.05,1.409c0.542,0.372 2.337,0.142 3.202,0.825c0.947,0.749 2.206,2.216 2.477,3.666c0.283,1.51 -0.675,4.273 -0.783,5.393c-0.042,0.444 -0.308,1.348 0.137,1.329c2.419,-0.103 9.581,-1.31 14.375,-1.944c5.657,-0.75 15.725,-2.428 19.571,-2.552c1.315,-0.042 2.401,1.1 3.508,1.811c2.314,1.484 8.579,5.601 10.371,7.093c0.486,0.404 0.31,1.229 0.381,1.857c0.402,3.514 1.386,16.007 2.028,19.223c0.119,0.597 1.216,0.045 1.824,0.073c0.915,0.043 2.524,-0.258 3.664,0.185c1.727,0.672 5.487,2.996 6.699,3.848c0.378,0.266 0.515,0.805 0.568,1.264c0.135,1.157 0.306,4.571 0.242,5.677c-0.021,0.381 -0.336,0.707 -0.622,0.959c-1.447,1.275 -5.156,4.754 -8.06,6.694c-4.047,2.703 -11.159,6.87 -16.222,9.526c-4.587,2.405 -10.77,4.349 -14.157,6.407c-2.438,1.482 -4.331,3.753 -6.165,5.94c-1.964,2.344 -4.498,5.287 -5.623,8.122c-1.101,2.776 -1.251,5.905 -1.128,8.889c0.166,4.012 0.715,10.271 2.125,15.183c1.624,5.659 5.051,12.526 7.621,18.771c2.739,6.657 6.156,14.227 8.813,21.172c2.585,6.758 4.697,13.687 7.129,20.501c4.727,13.244 14.072,39.34 21.236,58.964c7.595,20.803 20.042,53.851 24.333,65.855c0.71,1.987 1.1,4.509 1.414,6.171c0.237,1.255 0.702,3.174 0.472,3.803c-0.211,0.579 -1.54,-0.29 -1.849,-0.027c-0.31,0.263 -0.033,1.07 -0.008,1.605c0.069,1.526 -0.163,5.138 0.425,7.553c0.587,2.416 2.312,4.825 3.098,6.939c0.694,1.865 1.488,4.657 1.618,5.745c0.045,0.38 -0.552,0.531 -0.837,0.787c-0.589,0.53 -2.239,1.793 -2.701,2.393c-0.245,0.317 -0.181,0.86 -0.071,1.202c0.111,0.341 0.401,0.676 0.733,0.846c0.445,0.228 1.434,0.075 1.931,0.518c0.565,0.503 1.123,1.597 1.458,2.502c1.511,4.077 6.482,17.855 7.603,21.961c0.247,0.904 -0.417,1.856 -0.878,2.673c-0.615,1.091 -1.674,2.757 -2.815,3.874c-1.341,1.311 -3.407,2.77 -5.227,3.993c-1.956,1.314 -4.133,3.033 -6.512,3.893c-2.811,1.016 -7.284,1.774 -10.355,2.205c-2.668,0.375 -5.88,0.347 -8.072,0.382c-1.696,0.028 -4.05,0.177 -5.084,-0.168c-0.698,-0.233 -0.78,-1.25 -1.118,-1.904c-0.816,-1.578 -2.64,-4.985 -3.778,-7.563c-1.45,-3.281 -4.062,-9.255 -4.917,-12.123c-0.485,-1.624 -0.558,-3.73 -0.213,-5.081c0.311,-1.224 2.028,-2.307 2.279,-3.026c0.166,-0.473 -0.316,-1.079 -0.771,-1.29c-0.685,-0.317 -2.625,0.267 -3.338,-0.612c-1.668,-2.057 -5.576,-9.203 -6.673,-11.733c-0.457,-1.055 0.426,-2.555 0.093,-3.448c-0.329,-0.883 -1.522,-1.154 -2.09,-1.907c-0.719,-0.955 -1.637,-2.539 -2.223,-3.821c-0.566,-1.235 -0.823,-3.113 -1.297,-3.866c-0.298,-0.474 -1.294,-0.84 -1.549,-0.652c-0.254,0.189 0.018,1.19 0.022,1.785c0.006,0.987 0.219,2.991 0.013,4.134c-0.177,0.984 -0.69,1.898 -1.249,2.727c-0.636,0.942 -1.458,2.253 -2.568,2.926c-1.497,0.908 -5.302,1.717 -6.415,2.525c-0.63,0.457 -0.33,1.604 -0.263,2.32c0.064,0.692 0.145,1.513 0.663,1.975c0.548,0.49 1.753,0.641 2.628,0.965c0.902,0.333 1.962,0.634 2.783,1.038c0.764,0.375 1.501,0.828 2.146,1.383c0.648,0.556 1.47,1.125 1.74,1.955c0.305,0.933 0.114,2.431 0.086,3.646c-0.051,2.265 0.085,7.824 -0.392,9.94c-0.272,1.204 -1.555,2.084 -2.474,2.755c-0.887,0.646 -2.028,0.839 -3.039,1.266c-1.257,0.53 -2.93,1.485 -4.504,1.918c-1.903,0.524 -4.751,0.942 -6.917,1.223c-2.016,0.262 -4.05,0.543 -6.082,0.465c-2.434,-0.093 -6.007,-0.369 -8.525,-1.025c-2.323,-0.604 -5.018,-1.825 -6.587,-2.909c-1.252,-0.866 -2.486,-2.106 -2.823,-3.592c-0.521,-2.298 -0.671,-7.906 -0.304,-10.196c0.229,-1.429 1.46,-2.61 2.504,-3.545c1.044,-0.935 2.614,-1.627 3.761,-2.066c0.987,-0.378 2.55,-0.083 3.119,-0.568c0.569,-0.486 0.296,-1.557 0.294,-2.345c-0.001,-0.961 0.27,-2.794 -0.305,-3.422c-0.574,-0.628 -2.157,0.03 -3.141,-0.346c-1.864,-0.713 -6.589,-3.016 -8.048,-3.93c-0.482,-0.302 -0.66,-0.988 -0.704,-1.555c-0.121,-1.553 0.34,-5.892 -0.02,-7.761c-0.256,-1.33 -1.421,-2.307 -2.143,-3.453c-0.95,-1.509 -2.737,-3.546 -3.557,-5.6c-4.683,-11.726 -17.074,-44.625 -24.538,-64.753c-6.903,-18.614 -16.305,-46.603 -20.249,-56.012c-0.443,-1.059 -2.273,-0.556 -3.416,-0.441c-4.362,0.439 -16.485,2.644 -22.759,3.074c-4.952,0.34 -11.367,0.624 -14.882,-0.493c-2.79,-0.886 -5.11,-4.586 -6.211,-6.206c-0.663,-0.974 -0.944,-2.469 -0.395,-3.512c0.806,-1.533 3.221,-4.079 5.235,-5.686c2.706,-2.159 7.224,-5.022 11.001,-7.27c4.365,-2.599 10.074,-5.648 15.191,-8.321c5.162,-2.697 11.406,-5.728 15.778,-7.86c3.463,-1.689 8.138,-3.902 10.453,-4.935c1.114,-0.497 2.839,-0.553 3.437,-1.258c0.598,-0.706 0.456,-2.031 0.151,-2.976c-0.845,-2.613 -3.625,-8.411 -5.221,-12.702c-3.745,-10.063 -14.016,-39.636 -17.247,-47.676c-0.275,-0.685 -1.408,-0.649 -2.141,-0.563c-3.013,0.356 -11.882,2.928 -15.935,2.7c-3.101,-0.175 -6.946,-2.871 -8.381,-4.072c-0.804,-0.673 0.227,-2.677 -0.231,-3.136c-0.459,-0.459 -1.836,-0.12 -2.521,0.382c-0.69,0.507 -0.829,2.217 -1.623,2.659c-0.793,0.441 -2.103,0.142 -3.138,-0.008c-1.042,-0.152 -2.224,-0.29 -3.115,-0.903c-1.531,-1.054 -3.862,-4.73 -6.072,-5.423c-2.21,-0.693 -5.596,1.286 -7.189,1.265c-0.914,-0.011 -2.107,-2.264 -2.365,-1.388c-0.377,1.283 0.057,6.056 0.1,9.084c0.17,12.027 1.255,50.031 0.92,63.08c-0.132,5.163 -1.496,10.497 -2.928,15.214c-1.381,4.549 -3.04,9.532 -5.664,13.088c-2.577,3.493 -6.387,6.426 -10.077,8.249c-3.69,1.823 -8.314,2.354 -12.061,2.688c-3.467,0.31 -7.434,0.579 -10.419,-0.68c-2.984,-1.259 -6.7,-4.83 -7.489,-6.874c-0.726,-1.882 1.322,-3.969 2.757,-5.387c1.759,-1.738 5.727,-3.412 7.798,-5.04c1.733,-1.363 3.933,-2.634 4.627,-4.727c0.981,-2.963 1.324,-8.684 1.263,-13.057c-0.076,-5.525 -0.393,-13.503 -1.721,-20.092c-1.362,-6.763 -4.4,-14.493 -6.455,-20.482c-1.788,-5.213 -3.913,-11.25 -5.875,-15.455c-1.608,-3.449 -4.758,-7.481 -5.893,-9.777c-0.606,-1.226 -0.928,-2.633 -0.916,-4.001c0.055,-6.249 1.451,-27.831 1.245,-33.492c-0.031,-0.842 -1.646,-0.563 -2.483,-0.471c-2.97,0.323 -11.176,1.606 -15.337,2.413c-3.248,0.63 -7.22,1.969 -9.625,2.43c-1.576,0.302 -3.407,-0.457 -4.804,0.335c-1.501,0.852 -2.322,3.801 -4.206,4.775c-2.727,1.409 -7.965,3.067 -12.153,3.68c-7.132,1.043 -24.692,3.002 -30.638,2.582c-2.385,-0.169 -3.936,-4.688 -5.039,-5.107c-0.945,-0.359 -1.415,1.593 -1.578,2.592c-0.21,1.278 1.94,4.573 0.321,5.08c-4.426,1.386 -21.38,3.503 -26.879,3.235c-2.597,-0.127 -5.191,-3.577 -6.112,-4.847c-0.555,-0.764 0.592,-1.828 0.584,-2.772c-0.024,-2.847 -0.854,-11.587 -0.727,-14.307c0.039,-0.833 0.687,-1.778 1.488,-2.011c3.245,-0.946 14.886,-2.383 17.98,-3.663c1.249,-0.517 0.787,-2.679 0.581,-4.015c-0.264,-1.704 -1.626,-4.084 -2.161,-6.208c-0.897,-3.562 -2.815,-10.421 -3.22,-15.163c-0.379,-4.42 0.467,-10.364 0.786,-13.287c0.159,-1.457 2.068,-3.546 1.129,-4.249c-0.94,-0.702 -4.512,-0.022 -6.766,0.033c-2.596,0.065 -7.021,0.733 -8.805,0.353c-1.06,-0.226 -1.096,-1.913 -1.903,-2.635c-1.139,-1.019 -4.095,-2.483 -4.926,-3.478c-0.533,-0.636 -0.075,-1.659 -0.063,-2.489c0.041,-2.954 -0.028,-12.396 0.309,-15.236c0.098,-0.824 0.889,-1.712 1.714,-1.806c4.98,-0.568 22.509,-0.861 28.166,-1.603c2.127,-0.279 3.644,-2.571 5.771,-2.847c7.314,-0.948 31.301,-2.571 38.11,-2.84c1.001,-0.039 1.752,1.382 2.743,1.23c2.716,-0.416 10.903,0.138 13.555,-3.725c6.53,-9.512 21.418,-43.636 25.628,-53.345c0.653,-1.506 -0.941,-3.372 -0.37,-4.91c1.517,-4.086 8.063,-14.676 9.471,-19.606c0.917,-3.213 -1.939,-6.758 -1.025,-9.973c1.407,-4.948 7.226,-16.286 9.467,-19.719c0.742,-1.137 3.505,0.221 3.978,-0.878c0.473,-1.099 -1.803,-3.888 -1.14,-5.713c1.84,-5.067 10.126,-18.18 12.179,-24.689c1.44,-4.567 2.601,-10.26 0.136,-14.365c-4.647,-7.737 -21.613,-24.453 -28.015,-32.057c-3.669,-4.358 -8.378,-10.133 -10.395,-13.566c-1.221,-2.08 -1.543,-5.381 -1.704,-7.031" style="fill:#740910;stroke:#000;stroke-width:4.17px;"/></g><text x="839.877px" y="553.589px" style="font-family:'AgencyFB-Bold', 'Agency FB', sans-serif;font-weight:700;font-stretch:condensed;font-size:489.683px;fill:#fed136;">Bay Side Collision</text><g transform="matrix(0.913973,0.405775,-0.405775,0.913973,-340.262,121.678)"><text x="617.646px" y="-244.146px" style="font-family:'AgencyFB-Bold', 'Agency FB', sans-serif;font-weight:700;font-stretch:condensed;font-size:99.189px;fill:#fed136;">B.S.C.</text></g></g></svg>