<?xml version="1.0" encoding="UTF-8" standalone="no"?><!DOCTYPE svg PUBLIC "-//W3C//DTD SVG 1.1//EN" "http://www.w3.org/Graphics/SVG/1.1/DTD/svg11.dtd"><svg width="100%" height="100%" viewBox="0 0 124 124" version="1.1" xmlns="http://www.w3.org/2000/svg" xmlns:xlink="http://www.w3.org/1999/xlink" xml:space="preserve" xmlns:serif="http://www.serif.com/" style="fill-rule:evenodd;clip-rule:evenodd;stroke-linejoin:round;stroke-miterlimit:2;"><circle id="Icon-Outline" serif:id="Icon Outline" cx="62" cy="62" r="62" style="fill:#61f8dc;"/><path d="M90.322,59.355c0,-1.137 -0.923,-2.06 -2.06,-2.06l-51.985,0c-1.136,0 -2.059,0.923 -2.059,2.06l0,37.077c0,1.137 0.923,2.059 2.059,2.059l51.985,0c1.137,0 2.06,-0.922 2.06,-2.059l0,-37.077Z" style="fill:#fff;"/><rect x="42.008" y="43.358" width="7.789" height="13.937" style="fill:#f7fffe;"/><rect x="74.939" y="43.358" width="7.635" height="13.937" style="fill:#f7fffe;"/><path d="M62.291,25.845c11.195,0 20.284,7.696 20.284,17.175c0,9.479 -9.089,17.174 -20.284,17.174c-11.195,0 -20.283,-7.695 -20.283,-17.174c0,-9.479 9.088,-17.175 20.283,-17.175Zm0,8.587c5.598,0 10.142,3.848 10.142,8.588c0,4.739 -4.544,8.587 -10.142,8.587c-5.597,0 -10.142,-3.848 -10.142,-8.587c0,-4.74 4.545,-8.588 10.142,-8.588Z" style="fill:#f7fffe;"/><path d="M74.939,43.627c0,-5.881 -5.628,-10.648 -12.571,-10.648c-6.943,0 -12.571,4.767 -12.571,10.648l25.142,0Z" style="fill:#61f8dc;"/><rect x="49.797" y="43.584" width="25.142" height="13.711" style="fill:#61f8dc;"/></svg>