<?xml version="1.0" encoding="UTF-8" standalone="no"?><!DOCTYPE svg PUBLIC "-//W3C//DTD SVG 1.1//EN" "http://www.w3.org/Graphics/SVG/1.1/DTD/svg11.dtd"><svg width="100%" height="100%" viewBox="0 0 2155 2155" version="1.1" xmlns="http://www.w3.org/2000/svg" xmlns:xlink="http://www.w3.org/1999/xlink" xml:space="preserve" xmlns:serif="http://www.serif.com/" style="fill-rule:evenodd;clip-rule:evenodd;stroke-linecap:round;stroke-linejoin:round;stroke-miterlimit:1.5;"><circle id="Icon-Outline" serif:id="Icon Outline" cx="1076.39" cy="1076.39" r="1076.39" style="fill:#61f8dc;"/><path d="M1568.09,1030.47c0,-19.742 -16.025,-35.767 -35.767,-35.767l-902.517,0c-19.721,0 -35.746,16.025 -35.746,35.763l0,643.7c0,19.737 16.025,35.745 35.746,35.745l902.517,0.001c19.742,0 35.767,-16.009 35.767,-35.746l0,-643.7l0,0.004Z" style="fill:#fff;stroke:#fff;stroke-width:17.38px;"/><rect x="729.304" y="752.742" width="135.225" height="241.962" style="fill:#fff;stroke:#fff;stroke-width:17.38px;"/><rect x="1301.03" y="752.742" width="132.554" height="241.962" style="fill:#fff;stroke:#fff;stroke-width:17.38px;"/><path d="M1081.44,448.7c194.358,-0.004 352.154,133.608 352.154,298.175c0,164.567 -157.796,298.158 -352.154,298.158c-194.359,0 -352.138,-133.591 -352.138,-298.158c0,-164.567 157.779,-298.179 352.138,-298.179l0,0.004Zm0,149.083c97.187,0 176.075,66.805 176.075,149.096c0,82.275 -78.888,149.079 -176.075,149.079c-97.171,0 -176.075,-66.804 -176.075,-149.079c0,-82.291 78.904,-149.096 176.075,-149.096Z" style="fill:#fff;stroke:#fff;stroke-width:17.38px;"/><path d="M1301.03,756.667c0,-101.688 -97.708,-184.113 -218.246,-184.113c-120.537,0 -218.246,82.425 -218.246,184.113l436.492,0Z" style="fill:#61f8dc;"/><rect x="864.533" y="746.867" width="436.492" height="247.837" style="fill:#61f8dc;"/></svg>