<?xml version="1.0" encoding="UTF-8" standalone="no"?><!DOCTYPE svg PUBLIC "-//W3C//DTD SVG 1.1//EN" "http://www.w3.org/Graphics/SVG/1.1/DTD/svg11.dtd"><svg width="100%" height="100%" viewBox="0 0 2155 2155" version="1.1" xmlns="http://www.w3.org/2000/svg" xmlns:xlink="http://www.w3.org/1999/xlink" xml:space="preserve" xmlns:serif="http://www.serif.com/" style="fill-rule:evenodd;clip-rule:evenodd;stroke-linecap:square;stroke-linejoin:round;stroke-miterlimit:1.5;"><circle id="Icon-Outline" serif:id="Icon Outline" cx="1076.39" cy="1076.39" r="1076.39" style="fill:#61f8dc;"/><g><g><path d="M833.367,1042.92l-683.192,153.125" style="fill:none;stroke:#fff;stroke-width:29px;stroke-dasharray:29,86.79,0,0;"/><path d="M607.604,1051.89l-380.746,57.066" style="fill:none;stroke:#fff;stroke-width:8.5px;stroke-dasharray:16.83,16.83,0,0;"/><path d="M442.675,1014.12l-299.517,-11.6" style="fill:none;stroke:#fff;stroke-width:8.5px;stroke-dasharray:16.83,16.83,0,0;"/><path d="M605.367,986.058l-364.254,-92.95" style="fill:none;stroke:#fff;stroke-width:8.5px;stroke-dasharray:16.83,16.83,0,0;"/><path d="M835.158,1014.67l-667.521,-229.808" style="fill:none;stroke:#fff;stroke-width:29px;stroke-dasharray:29,86.79,0,0;"/><path d="M1089.34,582.829c36.787,-83.679 110.4,-251.025 131.941,-301.754c0.488,-1.125 -1.666,-1.854 -2.671,-2.583c-1.512,-1.113 -4.829,-2.067 -6.391,-4.063c-1.646,-2.083 -2.933,-5.975 -3.504,-8.492c-0.488,-2.133 -0.68,-4.512 0.066,-6.579c0.767,-2.154 2.625,-4.533 4.517,-6.266c2.029,-1.875 6.563,-3.163 7.621,-4.917c1.008,-1.646 -1.025,-3.729 -1.2,-5.642c-0.188,-2.291 -0.763,-5.483 0.037,-8.037c0.9,-2.9 2.879,-7.742 5.417,-9.288c2.533,-1.529 6.612,-0.675 9.775,0.071c3.729,0.867 8.904,3.833 12.638,5.188c3.175,1.129 6.595,3.545 9.704,2.85c3.108,-0.696 6.683,-5.105 8.925,-7.034c1.629,-1.404 2.429,-4.2 4.546,-4.6c3.837,-0.746 12.362,-0.521 18.491,0.159c7.363,0.833 17.534,1.837 25.746,4.791c19.029,6.838 59.358,23.142 88.404,36.196c35.088,15.8 94.529,44.271 122.188,58.542c15.225,7.866 33.295,20 43.695,27.1c6.7,4.566 14.117,11.112 18.734,15.487c3.404,3.229 7.587,7.034 9.029,10.8c1.404,3.679 -0.038,8.904 -0.367,11.788c-0.225,1.875 -2.725,3.904 -1.633,5.45c1.183,1.65 5.817,2.866 8.667,4.391c3.087,1.667 6.941,3.334 9.875,5.609c2.937,2.258 6.15,5.712 7.762,7.987c1.163,1.613 2.554,3.713 1.963,5.609c-0.609,1.875 -3.055,4.841 -5.555,5.712c-2.658,0.9 -8.958,-1.962 -10.312,-0.279c-1.338,1.683 1.996,7.171 2.204,10.362c0.171,2.955 0.588,6.459 -1.008,8.805c-1.596,2.362 -5.329,4.408 -8.575,5.329c-4.029,1.129 -13.021,0.521 -15.642,1.475c-1.337,0.504 0.521,2.987 -0.104,4.271c-0.975,2.05 -4.375,5.037 -5.783,8.004c-22.759,47.95 -107.013,231.716 -130.763,279.654c-2.083,4.233 -6.979,7.55 -11.683,8.004c-22.45,2.188 -100.296,3.104 -123.042,5.121c-5,0.433 -10.658,2.708 -13.35,6.942c-6.546,10.295 -19.512,43.387 -25.971,54.879c-3.108,5.537 -10.904,10.366 -12.762,14.116c-1.267,2.55 1.008,6.146 1.633,8.4c0.488,1.792 2.763,3.405 2.117,5.142c-2.742,7.483 -15.188,32.708 -18.609,39.704c-0.454,0.904 -0.991,2.067 -1.962,2.292c-1.7,0.379 -6.408,-2.067 -8.229,0c-3.246,3.679 -9.238,17.987 -11.25,22.1c-0.384,0.8 -1.492,3.054 -0.784,2.533c2.571,-1.837 10.542,-9.337 16.13,-13.608c6.2,-4.725 12.97,-11.788 20.991,-14.742c9.617,-3.525 25.067,-5.104 36.7,-6.475c10.971,-1.283 25.471,-2.741 33.092,-1.716c4.896,0.658 10.121,3.541 12.55,7.845c7.171,12.742 25.558,55.417 30.487,68.559c1.217,3.229 1.996,8.387 -0.866,10.312c-3.388,2.292 -14.725,3.509 -19.5,3.454c-3.296,-0.05 -6.509,-1.837 -9.146,-3.854c-2.796,-2.116 -6.096,-5.329 -7.658,-8.941c-1.667,-3.784 -0.659,-9.563 -2.275,-13.8c-1.596,-4.238 -3.263,-9.513 -7.342,-11.617c-4.829,-2.479 -14.688,-5.625 -21.6,-3.35c-7.238,2.379 -16.267,10.992 -21.733,17.604c-5.263,6.354 -10.225,14.079 -11.113,22.083c-0.904,8.021 3.508,20.4 5.729,25.992c1.321,3.317 4.046,7.15 7.588,7.533c7.237,0.763 23.958,-1.283 35.816,-2.95c17.671,-2.45 55.817,-10.016 70.209,-11.808c5.346,-0.658 10.937,-0.292 16.129,1.113c6.354,1.72 17.237,7.795 21.958,9.2c2.05,0.625 5.142,0.262 6.392,-0.675c1.25,-0.938 -0.192,-3.888 1.108,-4.95c1.842,-1.492 6.375,-3.263 9.846,-3.959c5.45,-1.108 18.125,-2.55 22.95,-2.708c2.05,-0.067 4.758,2.187 5.938,1.721c1.162,-0.488 -0.05,-3.471 1.079,-4.55c1.458,-1.421 4.808,-3.471 7.637,-3.904c7.984,-1.234 32.259,-3.821 40.296,-3.525c3.192,0.137 5.85,2.966 7.95,5.362c2.604,3.004 5.8,8.075 7.692,12.604c2.116,5.088 3.921,11.792 5.016,17.867c1.18,6.421 1.788,14.808 1.996,20.675c0.175,4.846 0.017,10.054 -0.729,14.55c-0.712,4.271 -2.429,9.358 -3.717,12.429c-0.937,2.242 -1.645,5.608 -4.041,6.079c-8.838,1.734 -40.417,4.409 -48.959,4.271c-1.858,-0.017 -1.6,-4.846 -2.291,-5.087c-0.696,-0.263 -1.338,2.341 -1.842,3.575c-0.675,1.616 -0.121,5.416 -2.171,6.129c-3.854,1.321 -17.462,1.041 -20.937,1.804c-0.921,0.208 -0.675,2.292 0.104,2.812c1.079,0.75 4.671,0.296 6.408,1.65c1.892,1.513 4.409,4.446 4.946,7.346c0.554,3.021 -1.354,8.542 -1.562,10.779c-0.088,0.888 -0.625,2.692 0.262,2.659c4.842,-0.209 19.167,-2.621 28.75,-3.892c11.317,-1.492 31.442,-4.858 39.129,-5.104c2.642,-0.083 4.813,2.208 7.017,3.629c4.633,2.971 17.15,11.2 20.746,14.183c0.971,0.8 0.608,2.45 0.762,3.7c0.8,7.03 2.763,32.013 4.046,38.438c0.242,1.196 2.429,0.104 3.646,0.154c1.825,0.088 5.05,-0.521 7.325,0.367c3.454,1.354 10.975,5.987 13.404,7.691c0.746,0.538 1.025,1.613 1.129,2.534c0.279,2.308 0.609,9.133 0.484,11.354c-0.034,0.762 -0.675,1.408 -1.25,1.908c-2.88,2.554 -10.292,9.517 -16.109,13.388c-8.091,5.4 -22.308,13.733 -32.429,19.046c-9.187,4.808 -21.546,8.695 -28.317,12.812c-4.879,2.967 -8.662,7.5 -12.329,11.875c-3.921,4.688 -8.991,10.571 -11.229,16.25c-2.208,5.554 -2.521,11.804 -2.258,17.775c0.329,8.021 1.421,20.542 4.237,30.35c3.246,11.317 10.104,25.05 15.242,37.533c5.487,13.317 12.308,28.455 17.621,42.346c5.175,13.504 9.391,27.359 14.254,40.988c9.462,26.475 28.142,78.662 42.467,117.9c15.187,41.596 40.066,107.675 48.662,131.683c1.404,3.958 2.188,9.013 2.813,12.325c0.483,2.521 1.404,6.354 0.954,7.604c-0.434,1.167 -3.092,-0.571 -3.7,-0.05c-0.625,0.521 -0.067,2.134 -0.017,3.213c0.142,3.054 -0.329,10.275 0.85,15.104c1.167,4.825 4.621,9.65 6.2,13.871c1.388,3.733 2.967,9.321 3.229,11.491c0.088,0.767 -1.112,1.059 -1.666,1.563c-1.18,1.079 -4.48,3.596 -5.4,4.792c-0.505,0.641 -0.363,1.72 -0.155,2.412c0.225,0.679 0.813,1.338 1.475,1.688c0.884,0.45 2.863,0.154 3.855,1.041c1.129,1.004 2.237,3.192 2.916,5c3.021,8.142 12.967,35.692 15.209,43.904c0.483,1.805 -0.834,3.717 -1.755,5.346c-1.233,2.188 -3.35,5.521 -5.641,7.746c-2.675,2.621 -6.809,5.538 -10.454,7.983c-3.905,2.625 -8.263,6.063 -13.021,7.78c-5.604,2.033 -14.563,3.558 -20.692,4.408c-5.35,0.767 -11.754,0.696 -16.146,0.767c-3.387,0.066 -8.091,0.362 -10.158,-0.33c-1.404,-0.47 -1.563,-2.5 -2.238,-3.804c-1.633,-3.158 -5.279,-9.966 -7.554,-15.121c-2.9,-6.562 -8.125,-18.508 -9.841,-24.254c-0.955,-3.246 -1.113,-7.446 -0.417,-10.154c0.625,-2.45 4.046,-4.604 4.546,-6.042c0.333,-0.958 -0.625,-2.17 -1.525,-2.587c-1.371,-0.625 -5.263,0.537 -6.684,-1.217c-3.333,-4.112 -11.145,-18.404 -13.333,-23.471c-0.921,-2.1 0.85,-5.104 0.171,-6.891c-0.658,-1.771 -3.038,-2.313 -4.167,-3.804c-1.441,-1.909 -3.279,-5.088 -4.462,-7.638c-1.125,-2.483 -1.629,-6.233 -2.584,-7.746c-0.591,-0.937 -2.587,-1.683 -3.091,-1.3c-0.521,0.384 0.033,2.379 0.033,3.575c0.017,1.963 0.433,5.975 0.038,8.267c-0.367,1.958 -1.392,3.8 -2.5,5.45c-1.271,1.875 -2.917,4.496 -5.142,5.85c-2.983,1.825 -10.608,3.437 -12.829,5.054c-1.25,0.9 -0.659,3.208 -0.521,4.633c0.121,1.388 0.296,3.021 1.321,3.942c1.091,0.988 3.504,1.283 5.258,1.946c1.804,0.658 3.925,1.267 5.575,2.062c1.525,0.75 2.983,1.65 4.288,2.763c1.283,1.112 2.933,2.258 3.47,3.925c0.609,1.854 0.225,4.858 0.175,7.292c-0.104,4.512 0.175,15.641 -0.783,19.858c-0.554,2.412 -3.108,4.167 -4.946,5.521c-1.771,1.287 -4.062,1.666 -6.075,2.516c-2.521,1.08 -5.871,2.988 -9.012,3.838c-3.8,1.058 -9.496,1.892 -13.838,2.45c-4.025,0.521 -8.087,1.092 -12.15,0.937c-4.862,-0.191 -12.016,-0.745 -17.05,-2.05c-4.637,-1.216 -10.033,-3.662 -13.158,-5.816c-2.521,-1.734 -4.983,-4.217 -5.663,-7.188c-1.041,-4.6 -1.337,-15.816 -0.608,-20.379c0.471,-2.867 2.917,-5.229 5.021,-7.104c2.083,-1.854 5.225,-3.246 7.517,-4.129c1.979,-0.746 5.104,-0.159 6.233,-1.129c1.146,-0.971 0.587,-3.109 0.587,-4.688c0,-1.929 0.538,-5.592 -0.608,-6.842c-1.146,-1.266 -4.321,0.055 -6.283,-0.691c-3.734,-1.425 -13.175,-6.025 -16.092,-7.867c-0.958,-0.608 -1.321,-1.962 -1.408,-3.108c-0.242,-3.109 0.679,-11.771 -0.034,-15.521c-0.52,-2.654 -2.85,-4.6 -4.287,-6.892c-1.896,-3.021 -5.471,-7.1 -7.121,-11.196c-9.358,-23.458 -34.129,-89.237 -49.062,-129.479c-13.8,-37.225 -32.605,-93.196 -40.484,-112c-0.887,-2.116 -4.55,-1.108 -6.825,-0.883c-8.733,0.867 -32.966,5.279 -45.521,6.146c-9.895,0.675 -22.725,1.25 -29.758,-0.992c-5.571,-1.771 -10.208,-9.167 -12.412,-12.412c-1.317,-1.942 -1.892,-4.93 -0.78,-7.013c1.596,-3.075 6.421,-8.158 10.45,-11.371c5.417,-4.325 14.446,-10.037 21.996,-14.533c8.734,-5.208 20.159,-11.3 30.384,-16.65c10.329,-5.379 22.812,-11.442 31.545,-15.713c6.925,-3.366 16.284,-7.791 20.9,-9.858c2.225,-0.992 5.68,-1.112 6.875,-2.516c1.2,-1.409 0.921,-4.063 0.296,-5.959c-1.683,-5.225 -7.237,-16.821 -10.433,-25.396c-7.483,-20.121 -28.021,-79.254 -34.479,-95.329c-0.554,-1.375 -2.813,-1.304 -4.288,-1.129c-6.025,0.712 -23.75,5.867 -31.858,5.4c-6.196,-0.35 -13.888,-5.729 -16.754,-8.146c-1.613,-1.333 0.454,-5.346 -0.467,-6.267c-0.921,-0.92 -3.662,-0.241 -5.037,0.767c-1.388,1.021 -1.667,4.425 -3.246,5.313c-1.596,0.883 -4.217,0.291 -6.284,-0.021c-2.083,-0.292 -4.445,-0.571 -6.216,-1.804c-3.071,-2.1 -7.725,-9.446 -12.15,-10.834c-4.413,-1.387 -11.184,2.571 -14.375,2.534c-1.825,-0.034 -4.204,-4.53 -4.725,-2.775c-0.763,2.55 0.104,12.1 0.191,18.158c0.346,24.046 2.517,100.033 1.842,126.129c-0.262,10.329 -2.987,20.988 -5.85,30.417c-2.762,9.096 -6.079,19.062 -11.321,26.179c-5.158,6.979 -12.779,12.85 -20.158,16.496c-7.375,3.646 -16.613,4.704 -24.113,5.362c-6.929,0.625 -14.862,1.163 -20.833,-1.354c-5.971,-2.517 -13.404,-9.654 -14.967,-13.75c-1.458,-3.75 2.642,-7.933 5.505,-10.762c3.525,-3.475 11.458,-6.825 15.591,-10.088c3.471,-2.725 7.863,-5.262 9.254,-9.446c1.959,-5.921 2.655,-17.358 2.534,-26.108c-0.159,-11.042 -0.8,-27 -3.454,-40.175c-2.725,-13.525 -8.788,-28.975 -12.9,-40.954c-3.575,-10.417 -7.83,-22.5 -11.755,-30.904c-3.212,-6.892 -9.512,-14.946 -11.77,-19.55c-1.217,-2.446 -1.859,-5.259 -1.842,-8.005c0.104,-12.479 2.9,-55.641 2.483,-66.958c-0.05,-1.683 -3.279,-1.129 -4.962,-0.937c-5.938,0.641 -22.346,3.212 -30.663,4.825c-6.491,1.25 -14.441,3.925 -19.254,4.845c-3.142,0.605 -6.804,-0.904 -9.6,0.675c-3.004,1.7 -4.633,7.605 -8.4,9.55c-5.454,2.813 -15.937,6.13 -24.308,7.359c-14.254,2.083 -49.375,6.008 -61.267,5.158c-4.758,-0.329 -7.862,-9.375 -10.071,-10.208c-1.891,-0.713 -2.829,3.196 -3.158,5.175c-0.417,2.566 3.887,9.146 0.642,10.171c-8.855,2.762 -42.742,6.995 -53.75,6.458c-5.192,-0.242 -10.363,-7.15 -12.205,-9.688c-1.112,-1.525 1.18,-3.662 1.163,-5.537c-0.05,-5.696 -1.717,-23.175 -1.458,-28.613c0.087,-1.666 1.37,-3.558 2.97,-4.025c6.492,-1.891 29.775,-4.758 35.955,-7.329c2.5,-1.021 1.579,-5.346 1.162,-8.021c-0.521,-3.4 -3.246,-8.158 -4.321,-12.412c-1.791,-7.117 -5.625,-20.833 -6.441,-30.313c-0.746,-8.854 0.937,-20.729 1.579,-26.579c0.312,-2.9 4.133,-7.083 2.258,-8.487c-1.875,-1.409 -9.029,-0.054 -13.525,0.066c-5.192,0.121 -14.046,1.459 -17.604,0.696c-2.121,-0.45 -2.204,-3.821 -3.821,-5.262c-2.275,-2.029 -8.175,-4.963 -9.842,-6.959c-1.062,-1.27 -0.158,-3.316 -0.125,-4.966c0.088,-5.921 -0.05,-24.792 0.609,-30.471c0.208,-1.646 1.787,-3.417 3.437,-3.608c9.95,-1.146 45,-1.721 56.321,-3.213c4.254,-0.554 7.275,-5.137 11.529,-5.696c14.634,-1.891 62.604,-5.137 76.213,-5.675c1.996,-0.071 3.508,2.759 5.487,2.463c5.434,-0.834 21.788,0.279 27.1,-7.446c13.054,-19.029 42.829,-87.258 51.234,-106.667c1.32,-3.021 -1.875,-6.737 -0.73,-9.829c3.038,-8.158 16.13,-29.337 18.942,-39.2c1.821,-6.425 -3.892,-13.508 -2.05,-19.929c2.813,-9.896 14.446,-32.571 18.925,-39.429c1.475,-2.275 7.013,0.433 7.95,-1.754c0.954,-2.205 -3.592,-7.775 -2.275,-11.421c3.683,-10.142 20.246,-36.354 24.342,-49.375c2.883,-9.134 5.208,-20.521 0.279,-28.717c-9.292,-15.487 -43.213,-48.904 -56.008,-64.112c-7.346,-8.7 -16.755,-20.263 -20.8,-27.121c-2.43,-4.167 -3.071,-10.763 -3.4,-14.063" style="fill:#fff;stroke:#fff;stroke-width:18.04px;stroke-linecap:round;"/></g></g></svg>