<?xml version="1.0" encoding="UTF-8" standalone="no"?><!DOCTYPE svg PUBLIC "-//W3C//DTD SVG 1.1//EN" "http://www.w3.org/Graphics/SVG/1.1/DTD/svg11.dtd"><svg width="100%" height="100%" viewBox="0 0 124 124" version="1.1" xmlns="http://www.w3.org/2000/svg" xmlns:xlink="http://www.w3.org/1999/xlink" xml:space="preserve" xmlns:serif="http://www.serif.com/" style="fill-rule:evenodd;clip-rule:evenodd;stroke-linecap:square;stroke-linejoin:round;stroke-miterlimit:1.5;"><circle id="Icon-Outline" serif:id="Icon Outline" cx="62" cy="62" r="62" style="fill:#61f8dc;"/><g><g><path d="M48.002,60.072l-39.352,8.82" style="fill:none;stroke:#fff;stroke-width:1.67px;stroke-dasharray:1.67,5,0,0;"/><path d="M34.998,60.589l-21.931,3.287" style="fill:none;stroke:#fff;stroke-width:0.49px;stroke-dasharray:0.97,0.97,0,0;"/><path d="M25.498,58.413l-17.252,-0.668" style="fill:none;stroke:#fff;stroke-width:0.49px;stroke-dasharray:0.97,0.97,0,0;"/><path d="M34.869,56.797l-20.981,-5.354" style="fill:none;stroke:#fff;stroke-width:0.49px;stroke-dasharray:0.97,0.97,0,0;"/><path d="M48.105,58.445l-38.449,-13.237" style="fill:none;stroke:#fff;stroke-width:1.67px;stroke-dasharray:1.67,5,0,0;"/><path d="M62.746,33.571c2.119,-4.82 6.359,-14.459 7.6,-17.381c0.028,-0.065 -0.096,-0.107 -0.154,-0.149c-0.087,-0.064 -0.278,-0.119 -0.368,-0.234c-0.095,-0.12 -0.169,-0.344 -0.202,-0.489c-0.028,-0.123 -0.039,-0.26 0.004,-0.379c0.044,-0.124 0.151,-0.261 0.26,-0.361c0.117,-0.108 0.378,-0.182 0.439,-0.283c0.058,-0.095 -0.059,-0.215 -0.069,-0.325c-0.011,-0.132 -0.044,-0.316 0.002,-0.463c0.052,-0.167 0.166,-0.446 0.312,-0.535c0.146,-0.088 0.381,-0.039 0.563,0.004c0.215,0.05 0.513,0.221 0.728,0.299c0.183,0.065 0.38,0.204 0.559,0.164c0.179,-0.04 0.385,-0.294 0.514,-0.405c0.094,-0.081 0.14,-0.242 0.262,-0.265c0.221,-0.043 0.712,-0.03 1.065,0.009c0.424,0.048 1.01,0.106 1.483,0.276c1.096,0.394 3.419,1.333 5.092,2.085c2.021,0.91 5.445,2.55 7.038,3.372c0.877,0.453 1.918,1.152 2.517,1.561c0.386,0.263 0.813,0.64 1.079,0.892c0.196,0.186 0.437,0.405 0.52,0.622c0.081,0.212 -0.002,0.513 -0.021,0.679c-0.013,0.108 -0.157,0.225 -0.094,0.314c0.068,0.095 0.335,0.165 0.499,0.253c0.178,0.096 0.4,0.192 0.569,0.323c0.169,0.13 0.354,0.329 0.447,0.46c0.067,0.093 0.147,0.214 0.113,0.323c-0.035,0.108 -0.176,0.279 -0.32,0.329c-0.153,0.052 -0.516,-0.113 -0.594,-0.016c-0.077,0.097 0.115,0.413 0.127,0.597c0.01,0.17 0.034,0.372 -0.058,0.507c-0.092,0.136 -0.307,0.254 -0.494,0.307c-0.232,0.065 -0.75,0.03 -0.901,0.085c-0.077,0.029 0.03,0.172 -0.006,0.246c-0.056,0.118 -0.252,0.29 -0.333,0.461c-1.311,2.762 -6.164,13.347 -7.532,16.108c-0.12,0.244 -0.402,0.435 -0.673,0.461c-1.293,0.126 -5.777,0.179 -7.087,0.295c-0.288,0.025 -0.614,0.156 -0.769,0.4c-0.377,0.593 -1.124,2.499 -1.496,3.161c-0.179,0.319 -0.628,0.597 -0.735,0.813c-0.073,0.147 0.058,0.354 0.094,0.484c0.028,0.103 0.159,0.196 0.122,0.296c-0.158,0.431 -0.875,1.884 -1.072,2.287c-0.026,0.052 -0.057,0.119 -0.113,0.132c-0.098,0.022 -0.369,-0.119 -0.474,0c-0.187,0.212 -0.532,1.036 -0.648,1.273c-0.022,0.046 -0.086,0.176 -0.045,0.146c0.148,-0.106 0.607,-0.538 0.929,-0.784c0.357,-0.272 0.747,-0.679 1.209,-0.849c0.554,-0.203 1.444,-0.294 2.114,-0.373c0.632,-0.074 1.467,-0.158 1.906,-0.099c0.282,0.038 0.583,0.204 0.723,0.452c0.413,0.734 1.472,3.192 1.756,3.949c0.07,0.186 0.115,0.483 -0.05,0.594c-0.195,0.132 -0.848,0.202 -1.123,0.199c-0.19,-0.003 -0.375,-0.106 -0.527,-0.222c-0.161,-0.122 -0.351,-0.307 -0.441,-0.515c-0.096,-0.218 -0.038,-0.551 -0.131,-0.795c-0.092,-0.244 -0.188,-0.548 -0.423,-0.669c-0.278,-0.143 -0.846,-0.324 -1.244,-0.193c-0.417,0.137 -0.937,0.633 -1.252,1.014c-0.303,0.366 -0.589,0.811 -0.64,1.272c-0.052,0.462 0.202,1.175 0.33,1.497c0.076,0.191 0.233,0.412 0.437,0.434c0.417,0.044 1.38,-0.074 2.063,-0.17c1.018,-0.141 3.215,-0.577 4.044,-0.68c0.308,-0.038 0.63,-0.017 0.929,0.064c0.366,0.099 0.993,0.449 1.265,0.53c0.118,0.036 0.296,0.015 0.368,-0.039c0.072,-0.054 -0.011,-0.224 0.064,-0.285c0.106,-0.086 0.367,-0.188 0.567,-0.228c0.314,-0.064 1.044,-0.147 1.322,-0.156c0.118,-0.004 0.274,0.126 0.342,0.099c0.067,-0.028 -0.003,-0.2 0.062,-0.262c0.084,-0.082 0.277,-0.2 0.44,-0.225c0.46,-0.071 1.858,-0.22 2.321,-0.203c0.184,0.008 0.337,0.171 0.458,0.309c0.15,0.173 0.334,0.465 0.443,0.726c0.122,0.293 0.226,0.679 0.289,1.029c0.068,0.37 0.103,0.853 0.115,1.191c0.01,0.279 0.001,0.579 -0.042,0.838c-0.041,0.246 -0.14,0.539 -0.214,0.716c-0.054,0.129 -0.095,0.323 -0.233,0.35c-0.509,0.1 -2.328,0.254 -2.82,0.246c-0.107,-0.001 -0.092,-0.279 -0.132,-0.293c-0.04,-0.015 -0.077,0.135 -0.106,0.206c-0.039,0.093 -0.007,0.312 -0.125,0.353c-0.222,0.076 -1.006,0.06 -1.206,0.104c-0.053,0.012 -0.039,0.132 0.006,0.162c0.062,0.043 0.269,0.017 0.369,0.095c0.109,0.087 0.254,0.256 0.285,0.423c0.032,0.174 -0.078,0.492 -0.09,0.621c-0.005,0.051 -0.036,0.155 0.015,0.153c0.279,-0.012 1.104,-0.151 1.656,-0.224c0.652,-0.086 1.811,-0.28 2.254,-0.294c0.152,-0.005 0.277,0.127 0.404,0.209c0.267,0.171 0.988,0.645 1.195,0.817c0.056,0.046 0.035,0.141 0.044,0.213c0.046,0.405 0.159,1.844 0.233,2.214c0.014,0.069 0.14,0.006 0.21,0.009c0.105,0.005 0.291,-0.03 0.422,0.021c0.199,0.078 0.632,0.345 0.772,0.443c0.043,0.031 0.059,0.093 0.065,0.146c0.016,0.133 0.035,0.526 0.028,0.654c-0.002,0.044 -0.039,0.081 -0.072,0.11c-0.166,0.147 -0.593,0.548 -0.928,0.771c-0.466,0.311 -1.285,0.791 -1.868,1.097c-0.529,0.277 -1.241,0.501 -1.631,0.738c-0.281,0.171 -0.499,0.432 -0.71,0.684c-0.226,0.27 -0.518,0.609 -0.647,0.936c-0.127,0.32 -0.145,0.68 -0.13,1.024c0.019,0.462 0.082,1.183 0.244,1.748c0.187,0.652 0.582,1.443 0.878,2.162c0.316,0.767 0.709,1.639 1.015,2.439c0.298,0.778 0.541,1.576 0.821,2.361c0.545,1.525 1.621,4.531 2.446,6.791c0.875,2.396 2.308,6.202 2.803,7.585c0.081,0.228 0.126,0.519 0.162,0.71c0.028,0.145 0.081,0.366 0.055,0.438c-0.025,0.067 -0.178,-0.033 -0.213,-0.003c-0.036,0.03 -0.004,0.123 -0.001,0.185c0.008,0.176 -0.019,0.592 0.049,0.87c0.067,0.278 0.266,0.556 0.357,0.799c0.08,0.215 0.171,0.537 0.186,0.662c0.005,0.044 -0.064,0.061 -0.096,0.09c-0.068,0.062 -0.258,0.207 -0.311,0.276c-0.029,0.037 -0.021,0.099 -0.009,0.139c0.013,0.039 0.047,0.077 0.085,0.097c0.051,0.026 0.165,0.009 0.222,0.06c0.065,0.058 0.129,0.184 0.168,0.288c0.174,0.469 0.747,2.056 0.876,2.529c0.028,0.104 -0.048,0.214 -0.101,0.308c-0.071,0.126 -0.193,0.318 -0.325,0.446c-0.154,0.151 -0.392,0.319 -0.602,0.46c-0.225,0.151 -0.476,0.349 -0.75,0.448c-0.323,0.117 -0.839,0.205 -1.192,0.254c-0.308,0.044 -0.677,0.04 -0.93,0.044c-0.195,0.004 -0.466,0.021 -0.585,-0.019c-0.081,-0.027 -0.09,-0.144 -0.129,-0.219c-0.094,-0.182 -0.304,-0.574 -0.435,-0.871c-0.167,-0.378 -0.468,-1.066 -0.567,-1.397c-0.055,-0.187 -0.064,-0.429 -0.024,-0.585c0.036,-0.141 0.233,-0.265 0.262,-0.348c0.019,-0.055 -0.036,-0.125 -0.088,-0.149c-0.079,-0.036 -0.303,0.031 -0.385,-0.07c-0.192,-0.237 -0.642,-1.06 -0.768,-1.352c-0.053,-0.121 0.049,-0.294 0.01,-0.397c-0.038,-0.102 -0.175,-0.133 -0.24,-0.219c-0.083,-0.11 -0.189,-0.293 -0.257,-0.44c-0.065,-0.143 -0.094,-0.359 -0.149,-0.446c-0.034,-0.054 -0.149,-0.097 -0.178,-0.075c-0.03,0.022 0.002,0.137 0.002,0.206c0.001,0.113 0.025,0.344 0.002,0.476c-0.021,0.113 -0.08,0.219 -0.144,0.314c-0.073,0.108 -0.168,0.259 -0.296,0.337c-0.172,0.105 -0.611,0.198 -0.739,0.291c-0.072,0.052 -0.038,0.185 -0.03,0.267c0.007,0.08 0.017,0.174 0.076,0.227c0.063,0.057 0.202,0.074 0.303,0.112c0.104,0.038 0.226,0.073 0.321,0.119c0.088,0.043 0.172,0.095 0.247,0.159c0.074,0.064 0.169,0.13 0.2,0.226c0.035,0.107 0.013,0.28 0.01,0.42c-0.006,0.26 0.01,0.901 -0.045,1.144c-0.032,0.139 -0.179,0.24 -0.285,0.318c-0.102,0.074 -0.234,0.096 -0.35,0.145c-0.145,0.062 -0.338,0.172 -0.519,0.221c-0.219,0.061 -0.547,0.109 -0.797,0.141c-0.232,0.03 -0.466,0.063 -0.7,0.054c-0.28,-0.011 -0.692,-0.043 -0.982,-0.118c-0.267,-0.07 -0.578,-0.211 -0.758,-0.335c-0.145,-0.1 -0.287,-0.243 -0.326,-0.414c-0.06,-0.265 -0.077,-0.911 -0.035,-1.174c0.027,-0.165 0.168,-0.301 0.289,-0.409c0.12,-0.107 0.301,-0.187 0.433,-0.238c0.114,-0.043 0.294,-0.009 0.359,-0.065c0.066,-0.056 0.034,-0.179 0.034,-0.27c0,-0.111 0.031,-0.322 -0.035,-0.394c-0.066,-0.073 -0.249,0.003 -0.362,-0.04c-0.215,-0.082 -0.759,-0.347 -0.927,-0.453c-0.055,-0.035 -0.076,-0.113 -0.081,-0.179c-0.014,-0.179 0.039,-0.678 -0.002,-0.894c-0.03,-0.153 -0.164,-0.265 -0.247,-0.397c-0.109,-0.174 -0.315,-0.409 -0.41,-0.645c-0.539,-1.351 -1.966,-5.14 -2.826,-7.458c-0.795,-2.144 -1.878,-5.368 -2.332,-6.451c-0.051,-0.122 -0.262,-0.064 -0.393,-0.051c-0.503,0.05 -1.899,0.304 -2.622,0.354c-0.57,0.039 -1.309,0.072 -1.714,-0.057c-0.321,-0.102 -0.588,-0.528 -0.715,-0.715c-0.076,-0.112 -0.109,-0.284 -0.045,-0.404c0.092,-0.177 0.37,-0.47 0.602,-0.655c0.312,-0.249 0.832,-0.578 1.267,-0.837c0.503,-0.3 1.161,-0.651 1.75,-0.959c0.595,-0.31 1.314,-0.659 1.817,-0.905c0.399,-0.194 0.938,-0.449 1.204,-0.568c0.128,-0.057 0.327,-0.064 0.396,-0.145c0.069,-0.081 0.053,-0.234 0.017,-0.343c-0.097,-0.301 -0.417,-0.969 -0.601,-1.463c-0.431,-1.159 -1.614,-4.565 -1.986,-5.491c-0.032,-0.079 -0.162,-0.075 -0.247,-0.065c-0.347,0.041 -1.368,0.338 -1.835,0.311c-0.357,-0.02 -0.8,-0.33 -0.965,-0.469c-0.093,-0.077 0.026,-0.308 -0.027,-0.361c-0.053,-0.053 -0.211,-0.014 -0.29,0.044c-0.08,0.059 -0.096,0.255 -0.187,0.306c-0.092,0.051 -0.243,0.017 -0.362,-0.001c-0.12,-0.017 -0.256,-0.033 -0.358,-0.104c-0.177,-0.121 -0.445,-0.544 -0.7,-0.624c-0.254,-0.08 -0.644,0.148 -0.828,0.146c-0.105,-0.002 -0.242,-0.261 -0.272,-0.16c-0.044,0.147 0.006,0.697 0.011,1.046c0.02,1.385 0.145,5.762 0.106,7.265c-0.015,0.595 -0.172,1.209 -0.337,1.752c-0.159,0.524 -0.35,1.098 -0.652,1.508c-0.297,0.402 -0.736,0.74 -1.161,0.95c-0.425,0.21 -0.957,0.271 -1.389,0.309c-0.399,0.036 -0.856,0.067 -1.2,-0.078c-0.344,-0.145 -0.772,-0.556 -0.862,-0.792c-0.084,-0.216 0.152,-0.457 0.317,-0.62c0.203,-0.2 0.66,-0.393 0.898,-0.581c0.2,-0.157 0.453,-0.303 0.533,-0.544c0.113,-0.341 0.153,-1 0.146,-1.504c-0.009,-0.636 -0.046,-1.555 -0.199,-2.314c-0.157,-0.779 -0.506,-1.669 -0.743,-2.359c-0.206,-0.6 -0.451,-1.296 -0.677,-1.78c-0.185,-0.397 -0.548,-0.861 -0.678,-1.126c-0.07,-0.141 -0.107,-0.303 -0.106,-0.461c0.006,-0.719 0.167,-3.205 0.143,-3.857c-0.003,-0.097 -0.189,-0.065 -0.286,-0.054c-0.342,0.037 -1.287,0.185 -1.766,0.278c-0.374,0.072 -0.832,0.226 -1.109,0.279c-0.181,0.035 -0.392,-0.052 -0.553,0.039c-0.173,0.098 -0.267,0.438 -0.484,0.55c-0.314,0.162 -0.918,0.353 -1.4,0.424c-0.821,0.12 -2.844,0.346 -3.529,0.297c-0.274,-0.019 -0.453,-0.54 -0.58,-0.588c-0.109,-0.041 -0.163,0.184 -0.182,0.298c-0.024,0.148 0.224,0.527 0.037,0.586c-0.51,0.159 -2.462,0.403 -3.096,0.372c-0.299,-0.014 -0.597,-0.412 -0.703,-0.558c-0.064,-0.088 0.068,-0.211 0.067,-0.319c-0.003,-0.328 -0.099,-1.335 -0.084,-1.648c0.005,-0.096 0.079,-0.205 0.171,-0.232c0.374,-0.109 1.715,-0.274 2.071,-0.422c0.144,-0.059 0.091,-0.308 0.067,-0.462c-0.03,-0.196 -0.187,-0.47 -0.249,-0.715c-0.103,-0.41 -0.324,-1.2 -0.371,-1.746c-0.043,-0.51 0.054,-1.194 0.091,-1.531c0.018,-0.167 0.238,-0.408 0.13,-0.489c-0.108,-0.081 -0.52,-0.003 -0.779,0.004c-0.299,0.007 -0.809,0.084 -1.014,0.04c-0.122,-0.026 -0.127,-0.22 -0.22,-0.303c-0.131,-0.117 -0.471,-0.286 -0.567,-0.401c-0.061,-0.073 -0.009,-0.191 -0.007,-0.286c0.005,-0.341 -0.003,-1.428 0.035,-1.755c0.012,-0.095 0.103,-0.197 0.198,-0.208c0.573,-0.066 2.592,-0.099 3.244,-0.185c0.245,-0.032 0.419,-0.296 0.664,-0.328c0.843,-0.109 3.606,-0.296 4.39,-0.327c0.115,-0.004 0.202,0.159 0.316,0.142c0.313,-0.048 1.255,0.016 1.561,-0.429c0.752,-1.096 2.467,-5.026 2.951,-6.144c0.076,-0.174 -0.108,-0.388 -0.042,-0.566c0.175,-0.47 0.929,-1.69 1.091,-2.258c0.105,-0.37 -0.224,-0.778 -0.118,-1.148c0.162,-0.57 0.832,-1.876 1.09,-2.271c0.085,-0.131 0.404,0.025 0.458,-0.101c0.055,-0.127 -0.207,-0.448 -0.131,-0.658c0.212,-0.584 1.166,-2.094 1.402,-2.844c0.166,-0.526 0.3,-1.182 0.016,-1.654c-0.535,-0.892 -2.489,-2.817 -3.226,-3.693c-0.423,-0.501 -0.965,-1.167 -1.198,-1.562c-0.14,-0.24 -0.177,-0.62 -0.196,-0.81" style="fill:#fff;stroke:#fff;stroke-width:1.04px;stroke-linecap:round;"/></g></g></svg>