<?xml version="1.0" encoding="UTF-8" standalone="no"?><!DOCTYPE svg PUBLIC "-//W3C//DTD SVG 1.1//EN" "http://www.w3.org/Graphics/SVG/1.1/DTD/svg11.dtd"><svg width="100%" height="100%" viewBox="0 0 2155 2155" version="1.1" xmlns="http://www.w3.org/2000/svg" xmlns:xlink="http://www.w3.org/1999/xlink" xml:space="preserve" xmlns:serif="http://www.serif.com/" style="fill-rule:evenodd;clip-rule:evenodd;stroke-linecap:round;stroke-linejoin:round;stroke-miterlimit:1.5;"><circle id="Icon-Outline" serif:id="Icon Outline" cx="1076.39" cy="1076.39" r="1076.39" style="fill:#61f8dc;"/><g id="Hand-Wrench" serif:id="Hand Wrench"><g><path id="Bottom-Wrench" serif:id="Bottom Wrench" d="M1442.85,1596.2l155.75,-144.862l123.4,101.595c0,0 4.912,3.892 6.337,6.58c2.221,4.22 5.834,12.208 7.034,18.77c1.229,6.892 1.333,16.021 0.45,22.584c-0.784,5.871 -2.396,11.946 -5.763,16.825c-11.562,16.841 -48.021,66.946 -63.596,84.216c-7.95,8.821 -22.883,15.784 -29.841,19.48c-3.579,1.895 -7.813,2.329 -11.859,2.641c-4.966,0.379 -12.083,0.9 -17.866,-0.35c-5.78,-1.25 -11.58,-4.183 -16.821,-7.133c-5.225,-2.95 -9.934,-6.738 -14.584,-10.538c-24.533,-20.054 -132.641,-109.808 -132.641,-109.808Z" style="fill:#fff;stroke:#fff;stroke-width:17.38px;"/><path id="Top-Wrench" serif:id="Top Wrench" d="M328.038,532.725c7.187,-3.421 21.579,-10.258 32.97,-13.733c15.921,-4.859 41.284,-12.742 62.621,-15.38c25.175,-3.125 60.713,-5.037 88.454,-3.3c26.354,1.65 53.284,4.95 78.004,13.734c24.721,8.783 49.446,22.517 70.33,39.008c20.866,16.475 40.47,37.621 54.929,59.879c14.462,22.259 24.916,52.467 31.875,73.613c5.646,17.171 8.021,35.329 9.879,53.3c1.929,18.487 3.492,39.825 1.65,57.671c-1.738,16.929 -10.779,40.016 -12.638,49.446c-0.47,2.412 -0.312,5.608 1.546,7.204c8.921,7.637 34.563,25.904 51.979,38.696c35.85,26.358 133.905,94.483 163.175,119.462c8.317,7.1 9.513,21.792 12.38,30.383c2.275,6.859 3.991,13.959 4.72,21.146c0.938,9.271 1.388,27.934 0.905,34.429c-0.159,1.975 -2.413,3.192 -3.871,4.546c-14.688,13.788 -69.479,64.879 -84.238,78.125c-1.146,1.025 -2.883,1.009 -4.321,1.442c-4.204,1.266 -15.366,5.554 -20.887,6.129c-4.167,0.433 -8.854,-0.246 -12.238,-2.708c-39.812,-28.838 -187.604,-141.059 -226.583,-170.384c-2.429,-1.841 -5.208,-4.479 -7.271,-5.57c-1.529,-0.8 -3.491,-1.563 -5.104,-0.938c-3.3,1.283 -9.583,6.196 -14.725,8.679c-7.308,3.559 -18.958,9.738 -29.15,12.621c-16.229,4.583 -49.2,12.308 -68.208,14.896c-15.142,2.05 -30.559,1.008 -45.817,0.554c-24.846,-0.762 -92.812,-23.229 -112.45,-32.95c-1.525,-0.762 0.4,-3.558 1.475,-4.879c33.371,-41.613 164.792,-202.446 198.75,-244.808c2.208,-2.759 4.188,-5.905 4.95,-9.359c1.025,-4.721 1.925,-12.691 1.267,-19.008c-0.729,-6.929 -2.829,-16.963 -5.609,-22.621c-2.308,-4.742 -6.941,-7.987 -11.025,-11.337c-36.458,-29.88 -150.641,-121.946 -207.725,-167.988" style="fill:#fff;stroke:#fff;stroke-width:17.38px;"/><path id="Top-Wrench-2" serif:id="Top Wrench 2" d="M297.221,973.054l107.675,-133.608l-188.542,-155.142c0,0 -0.883,8.371 -0.954,12.554c-0.279,16.18 -3.108,56.492 -0.679,84.513c2.433,28.037 6.304,56.754 15.246,83.646c9.025,27.187 27.725,61.425 38.921,79.446c7.104,11.387 28.333,28.591 28.333,28.591Z" style="fill:#fff;stroke:#fff;stroke-width:17.38px;"/><path id="Hand" d="M1351.91,1546.37l22.538,-4.288l32.187,-16.095l90.138,-77.255l145.921,-151.304l75.121,-84.754c12.066,-18.667 20.883,-38.75 26.825,-60.087c5.208,-11.788 10.225,-24.08 11.804,-46.146l1.058,-42.917l-5.362,-82.621l-3.213,-50.437l7.517,-70.813l18.229,-68.683l20.4,-62.221l-260.746,-193.142l-51.512,49.359l-111.58,115.883l-18.246,18.229l-23.612,15.033l-24.671,13.942l-35.416,8.596l-41.842,1.058l-32.188,-5.366l-39.704,-7.5l-50.433,-1.075c-9.946,0.137 -18.421,3.212 -26.821,6.441c-8.333,4.55 -26.304,9.825 -45.367,23.229c-10.137,4.167 -23.645,19.359 -38.333,29.342l-34.342,31.125l-45.066,47.208l40.779,28.975l48.283,35.4c5.121,4.392 10.763,8.959 34.338,37.567l39.708,118.021c0.362,8.021 -0.208,15.975 -2.154,23.612c-0.659,7.692 -5.071,14.217 -10.729,20.384l-36.475,31.108l-286.496,236.079c-0.208,7.221 0.229,13.209 1.529,17.446c1.008,9.55 3.717,13.054 4.721,13.613c3.371,7.5 5.854,11.787 6.979,11.025c5.783,8.991 13.404,16.145 22.954,21.387c14.842,9.063 30.746,16.042 48.609,19.113c14.687,1.808 26.77,1.737 36.216,-0.225c19.096,-2.309 33.575,-6.909 43.663,-13.713l14.846,-7.883l3.608,11.025c3.437,10.066 6.896,16.925 10.35,20.258c8.942,10.471 17.308,18.317 24.754,22.05c15.904,9.775 35.833,14.529 60.75,13.054l23.367,-3.212c20.729,-3.263 36.737,-8.542 46.962,-16.317c0,0 6.546,8.367 10.675,11.579c4.221,3.279 14.654,8.109 14.654,8.109c0,0 10.259,7.933 16.909,10.4c6.754,2.479 23.596,4.512 23.596,4.512l52.587,0l20.883,-4.237l19.913,-9.546c0,0 6.704,-4.654 9.6,-7.5c3.092,-3.059 8.958,-10.784 8.958,-10.784l19.967,10.696l27.571,11.25l34.841,2.013Z" style="fill:#fff;stroke:#fff;stroke-width:17.38px;"/></g></g></svg>