<?xml version="1.0" encoding="UTF-8" standalone="no"?><!DOCTYPE svg PUBLIC "-//W3C//DTD SVG 1.1//EN" "http://www.w3.org/Graphics/SVG/1.1/DTD/svg11.dtd"><svg width="100%" height="100%" viewBox="0 0 124 124" version="1.1" xmlns="http://www.w3.org/2000/svg" xmlns:xlink="http://www.w3.org/1999/xlink" xml:space="preserve" xmlns:serif="http://www.serif.com/" style="fill-rule:evenodd;clip-rule:evenodd;stroke-linejoin:round;stroke-miterlimit:2;"><circle id="Icon-Outline" serif:id="Icon Outline" cx="62" cy="62" r="62" style="fill:#61f8dc;"/><g id="Hand-Wrench" serif:id="Hand Wrench"><g><path id="Bottom-Wrench" serif:id="Bottom Wrench" d="M83.108,91.941l8.971,-8.344l7.108,5.852c0,0 0.283,0.224 0.365,0.379c0.128,0.243 0.336,0.703 0.405,1.081c0.071,0.397 0.077,0.923 0.026,1.301c-0.045,0.338 -0.138,0.688 -0.332,0.969c-0.666,0.97 -2.766,3.856 -3.663,4.851c-0.458,0.508 -1.318,0.909 -1.719,1.122c-0.206,0.109 -0.45,0.134 -0.683,0.152c-0.286,0.022 -0.696,0.052 -1.029,-0.02c-0.333,-0.072 -0.667,-0.241 -0.969,-0.411c-0.301,-0.17 -0.572,-0.388 -0.84,-0.607c-1.413,-1.155 -7.64,-6.325 -7.64,-6.325Z" style="fill:#fff;"/><path id="Top-Wrench" serif:id="Top Wrench" d="M18.895,30.685c0.414,-0.197 1.243,-0.591 1.899,-0.791c0.917,-0.28 2.378,-0.734 3.607,-0.886c1.45,-0.18 3.497,-0.29 5.095,-0.19c1.518,0.095 3.069,0.285 4.493,0.791c1.424,0.506 2.848,1.297 4.051,2.247c1.202,0.949 2.331,2.167 3.164,3.449c0.833,1.282 1.435,3.022 1.836,4.24c0.325,0.989 0.462,2.035 0.569,3.07c0.111,1.065 0.201,2.294 0.095,3.322c-0.1,0.975 -0.621,2.305 -0.728,2.848c-0.027,0.139 -0.018,0.323 0.089,0.415c0.514,0.44 1.991,1.492 2.994,2.229c2.065,1.518 7.713,5.442 9.399,6.881c0.479,0.409 0.548,1.255 0.713,1.75c0.131,0.395 0.23,0.804 0.272,1.218c0.054,0.534 0.08,1.609 0.052,1.983c-0.009,0.114 -0.139,0.184 -0.223,0.262c-0.846,0.794 -4.002,3.737 -4.852,4.5c-0.066,0.059 -0.166,0.058 -0.249,0.083c-0.242,0.073 -0.885,0.32 -1.203,0.353c-0.24,0.025 -0.51,-0.014 -0.705,-0.156c-2.293,-1.661 -10.806,-8.125 -13.051,-9.814c-0.14,-0.106 -0.3,-0.258 -0.419,-0.321c-0.088,-0.046 -0.201,-0.09 -0.294,-0.054c-0.19,0.074 -0.552,0.357 -0.848,0.5c-0.421,0.205 -1.092,0.561 -1.679,0.727c-0.935,0.264 -2.834,0.709 -3.929,0.858c-0.872,0.118 -1.76,0.058 -2.639,0.032c-1.431,-0.044 -5.346,-1.338 -6.477,-1.898c-0.088,-0.044 0.023,-0.205 0.085,-0.281c1.922,-2.397 9.492,-11.661 11.448,-14.101c0.127,-0.159 0.241,-0.34 0.285,-0.539c0.059,-0.272 0.111,-0.731 0.073,-1.095c-0.042,-0.399 -0.163,-0.977 -0.323,-1.303c-0.133,-0.273 -0.4,-0.46 -0.635,-0.653c-2.1,-1.721 -8.677,-7.024 -11.965,-9.676" style="fill:#fff;"/><path id="Top-Wrench-2" serif:id="Top Wrench 2" d="M17.12,56.048l6.202,-7.696l-10.86,-8.936c0,0 -0.051,0.482 -0.055,0.723c-0.016,0.932 -0.179,3.254 -0.039,4.868c0.14,1.615 0.363,3.269 0.878,4.818c0.52,1.566 1.597,3.538 2.242,4.576c0.409,0.656 1.632,1.647 1.632,1.647Z" style="fill:#fff;"/><path id="Hand" d="M77.87,89.071l1.298,-0.247l1.854,-0.927l5.192,-4.45l8.405,-8.715l4.327,-4.882c0.695,-1.075 1.203,-2.232 1.545,-3.461c0.3,-0.679 0.589,-1.387 0.68,-2.658l0.061,-2.472l-0.309,-4.759l-0.185,-2.905l0.433,-4.079l1.05,-3.956l1.175,-3.584l-15.019,-11.125l-2.967,2.843l-6.427,6.675l-1.051,1.05l-1.36,0.866l-1.421,0.803l-2.04,0.495l-2.41,0.061l-1.854,-0.309l-2.287,-0.432l-2.905,-0.062c-0.573,0.008 -1.061,0.185 -1.545,0.371c-0.48,0.262 -1.515,0.566 -2.613,1.338c-0.584,0.24 -1.362,1.115 -2.208,1.69l-1.978,1.793l-2.596,2.719l2.349,1.669l2.781,2.039c0.295,0.253 0.62,0.516 1.978,2.164l2.287,6.798c0.021,0.462 -0.012,0.92 -0.124,1.36c-0.038,0.443 -0.292,0.819 -0.618,1.174l-2.101,1.792l-16.502,13.598c-0.012,0.416 0.013,0.761 0.088,1.005c0.058,0.55 0.214,0.752 0.272,0.784c0.194,0.432 0.337,0.679 0.402,0.635c0.333,0.518 0.772,0.93 1.322,1.232c0.855,0.522 1.771,0.924 2.8,1.101c0.846,0.104 1.542,0.1 2.086,-0.013c1.1,-0.133 1.934,-0.398 2.515,-0.79l0.855,-0.454l0.208,0.635c0.198,0.58 0.397,0.975 0.596,1.167c0.515,0.603 0.997,1.055 1.426,1.27c0.916,0.563 2.064,0.837 3.499,0.752l1.346,-0.185c1.194,-0.188 2.116,-0.492 2.705,-0.94c0,0 0.377,0.482 0.615,0.667c0.243,0.189 0.844,0.467 0.844,0.467c0,0 0.591,0.457 0.974,0.599c0.389,0.143 1.359,0.26 1.359,0.26l3.029,0l1.203,-0.244l1.147,-0.55c0,0 0.386,-0.268 0.553,-0.432c0.178,-0.176 0.516,-0.621 0.516,-0.621l1.15,0.616l1.588,0.648l2.007,0.116Z" style="fill:#fff;"/></g></g></svg>